<svg width="54" height="54" viewBox="0 0 54 54" fill="none" xmlns="http://www.w3.org/2000/svg">
<mask id="path-1-inside-1_6_346" fill="white">
<path fill-rule="evenodd" clip-rule="evenodd" d="M0.000142598 54L0.000144958 -2.36041e-06L54 0C54 29.8233 29.8235 53.9999 0.000142598 54Z"/>
</mask>
<path fill-rule="evenodd" clip-rule="evenodd" d="M0.000142598 54L0.000144958 -2.36041e-06L54 0C54 29.8233 29.8235 53.9999 0.000142598 54Z" fill="white"/>
<path d="M0.000142598 54L-2.99986 54L-2.99986 57L0.000150096 57L0.000142598 54ZM0.000144958 -2.36041e-06L0.00014509 -3L-2.99985 -3L-2.99986 -2.49154e-06L0.000144958 -2.36041e-06ZM54 0L57 3.3951e-07L57 -3L54 -3L54 0ZM3.00014 54L3.00014 -2.22927e-06L-2.99986 -2.49154e-06L-2.99986 54L3.00014 54ZM0.000144827 3L54 3L54 -3L0.00014509 -3L0.000144827 3ZM51 -3.3951e-07C51 28.1665 28.1666 50.9999 0.0001351 51L0.000150096 57C31.4803 56.9999 57 31.4802 57 3.3951e-07L51 -3.3951e-07Z" fill="black" mask="url(#path-1-inside-1_6_346)"/>
</svg>
