<svg width="91.062mm" height="91.062mm" version="1.1" viewBox="0 0 91.062 90.739" xmlns="http://www.w3.org/2000/svg">
 <g transform="translate(0 0)">
  <rect x="0" y="0" id="bg" width="91.062" height="91.062" fill="#c11a6b" fill-opacity="1"/>
 </g>
 <g transform="translate(51.806 12.115)" opacity=".997">
  <g transform="matrix(.26458 0 0 .26458 -45.56 78.121)" fill="#300654" fill-opacity=".99608" aria-label="RESEARCH REVERSE RELEASE REPEAT">
   <path d="m12.207-75.744q0.4655 0.15755 0.90235 0.67318 0.44401 0.51563 0.88802 1.418l1.4681 2.9219h-1.554l-1.3678-2.7428q-0.52995-1.0742-1.0313-1.4251-0.49414-0.35091-1.3535-0.35091h-1.5755v4.5189h-1.4466v-10.692h3.2656q1.8333 0 2.7357 0.76628t0.90235 2.3132q0 1.0098-0.47266 1.6758-0.4655 0.66602-1.3607 0.92383zm-3.6237-4.4902v3.7956h1.819q1.0456 0 1.5755-0.47982 0.53711-0.48698 0.53711-1.4251 0-0.93815-0.53711-1.4108-0.52995-0.47982-1.5755-0.47982z"/>
   <path d="m15.648-81.423h6.7604v1.2175h-5.3138v3.1654h5.0918v1.2175h-5.0918v3.8744h5.4427v1.2174h-6.8893z"/>
   <path d="m29.644-81.072v1.4108q-0.82357-0.39388-1.554-0.58724-0.73047-0.19336-1.4108-0.19336-1.1816 0-1.8262 0.45834-0.63737 0.45833-0.63737 1.3034 0 0.70899 0.42253 1.0742 0.42969 0.35807 1.6185 0.58008l0.8737 0.17904q1.6185 0.30794 2.3848 1.0885 0.77344 0.77344 0.77344 2.0768 0 1.554-1.0456 2.3561-1.0384 0.80208-3.0508 0.80208-0.75912 0-1.6185-0.17188-0.85222-0.17188-1.7689-0.50846v-1.4896q0.88086 0.49414 1.7259 0.74479 0.84505 0.25065 1.6615 0.25065 1.2389 0 1.9121-0.48698 0.67318-0.48698 0.67318-1.3893 0-0.78776-0.48698-1.2318-0.47982-0.44401-1.5827-0.66602l-0.88086-0.17188q-1.6185-0.32227-2.3418-1.0098-0.72331-0.6875-0.72331-1.9121 0-1.418 0.99544-2.2344 1.0026-0.81641 2.7572-0.81641 0.75196 0 1.5326 0.13607t1.597 0.4082z"/>
   <path d="m30.864-81.423h6.7604v1.2175h-5.3138v3.1654h5.0918v1.2175h-5.0918v3.8744h5.4427v1.2174h-6.8893z"/>
   <path d="m42.025-79.997-1.9622 5.321h3.9316zm-0.81641-1.4251h1.64l4.0749 10.692h-1.5039l-0.97396-2.7428h-4.8197l-0.97396 2.7428h-1.5254z"/>
   <path d="m51.875-75.744q0.4655 0.15755 0.90235 0.67318 0.44401 0.51563 0.88802 1.418l1.4681 2.9219h-1.554l-1.3678-2.7428q-0.52995-1.0742-1.0313-1.4251-0.49414-0.35091-1.3535-0.35091h-1.5755v4.5189h-1.4466v-10.692h3.2656q1.8333 0 2.7357 0.76628t0.90235 2.3132q0 1.0098-0.47266 1.6758-0.4655 0.66602-1.3607 0.92383zm-3.6237-4.4902v3.7956h1.819q1.0456 0 1.5755-0.47982 0.53711-0.48698 0.53711-1.4251 0-0.93815-0.53711-1.4108-0.52995-0.47982-1.5755-0.47982z"/>
   <path d="m62.591-80.599v1.5254q-0.73047-0.68034-1.5612-1.0169-0.82357-0.33659-1.7546-0.33659-1.8333 0-2.8073 1.1244-0.97396 1.1172-0.97396 3.237 0 2.1126 0.97396 3.237 0.97396 1.1172 2.8073 1.1172 0.93099 0 1.7546-0.33659 0.83073-0.33659 1.5612-1.0169v1.5111q-0.75912 0.51563-1.6113 0.77344-0.84505 0.25781-1.7904 0.25781-2.4277 0-3.8242-1.4824-1.3965-1.4896-1.3965-4.0606 0-2.5781 1.3965-4.0606 1.3965-1.4896 3.8242-1.4896 0.95964 0 1.8047 0.25781 0.85222 0.25065 1.597 0.75912z"/>
   <path d="m63.146-81.423h1.4466v4.3828h5.2565v-4.3828h1.4466v10.692h-1.4466v-5.0918h-5.2565v5.0918h-1.4466z"/>
   <path d="m97.177-75.744q0.4655 0.15755 0.90235 0.67318 0.44401 0.51563 0.88802 1.418l1.4681 2.9219h-1.554l-1.3678-2.7428q-0.52995-1.0742-1.0313-1.4251-0.49414-0.35091-1.3535-0.35091h-1.5755v4.5189h-1.4466v-10.692h3.2656q1.8333 0 2.7357 0.76628 0.90234 0.76628 0.90234 2.3132 0 1.0098-0.47266 1.6758-0.4655 0.66602-1.3607 0.92383zm-3.6237-4.4902v3.7956h1.819q1.0456 0 1.5755-0.47982 0.53711-0.48698 0.53711-1.4251 0-0.93815-0.53711-1.4108-0.52995-0.47982-1.5755-0.47982z"/>
   <path d="m100.62-81.423h6.7604v1.2175h-5.3138v3.1654h5.0918v1.2175h-5.0918v3.8744h5.4427v1.2174h-6.8893z"/>
   <path d="m110.96-70.73-4.082-10.692h1.5111l3.3874 9.002 3.3945-9.002h1.5039l-4.0749 10.692z"/>
   <path d="m116.56-81.423h6.7604v1.2175h-5.3138v3.1654h5.0918v1.2175h-5.0918v3.8744h5.4427v1.2174h-6.8893z"/>
   <path d="m129.21-75.744q0.4655 0.15755 0.90235 0.67318 0.44401 0.51563 0.88802 1.418l1.4681 2.9219h-1.554l-1.3678-2.7428q-0.52995-1.0742-1.0312-1.4251-0.49414-0.35091-1.3535-0.35091h-1.5755v4.5189h-1.4466v-10.692h3.2656q1.8333 0 2.7357 0.76628 0.90234 0.76628 0.90234 2.3132 0 1.0098-0.47266 1.6758-0.46549 0.66602-1.3607 0.92383zm-3.6237-4.4902v3.7956h1.819q1.0456 0 1.5755-0.47982 0.53711-0.48698 0.53711-1.4251 0-0.93815-0.53711-1.4108-0.52995-0.47982-1.5755-0.47982z"/>
   <path d="m139.06-81.072v1.4108q-0.82357-0.39388-1.554-0.58724t-1.4108-0.19336q-1.1816 0-1.8262 0.45834-0.63737 0.45833-0.63737 1.3034 0 0.70899 0.42253 1.0742 0.42969 0.35807 1.6185 0.58008l0.8737 0.17904q1.6185 0.30794 2.3848 1.0885 0.77344 0.77344 0.77344 2.0768 0 1.554-1.0456 2.3561-1.0384 0.80208-3.0508 0.80208-0.75912 0-1.6185-0.17188-0.85222-0.17188-1.7689-0.50846v-1.4896q0.88086 0.49414 1.7259 0.74479 0.84505 0.25065 1.6615 0.25065 1.2389 0 1.9121-0.48698 0.67318-0.48698 0.67318-1.3893 0-0.78776-0.48698-1.2318-0.47982-0.44401-1.5827-0.66602l-0.88087-0.17188q-1.6185-0.32227-2.3418-1.0098-0.72331-0.6875-0.72331-1.9121 0-1.418 0.99545-2.2344 1.0026-0.81641 2.7572-0.81641 0.75195 0 1.5326 0.13607t1.597 0.4082z"/>
   <path d="m140.29-81.423h6.7604v1.2175h-5.3138v3.1654h5.0918v1.2175h-5.0918v3.8744h5.4427v1.2174h-6.8893z"/>
   <path d="m172.55-75.744q0.4655 0.15755 0.90235 0.67318 0.44401 0.51563 0.88802 1.418l1.4681 2.9219h-1.554l-1.3678-2.7428q-0.52995-1.0742-1.0312-1.4251-0.49414-0.35091-1.3535-0.35091h-1.5755v4.5189h-1.4466v-10.692h3.2656q1.8333 0 2.7357 0.76628 0.90234 0.76628 0.90234 2.3132 0 1.0098-0.47266 1.6758-0.46549 0.66602-1.3607 0.92383zm-3.6237-4.4902v3.7956h1.819q1.0456 0 1.5755-0.47982 0.53711-0.48698 0.53711-1.4251 0-0.93815-0.53711-1.4108-0.52995-0.47982-1.5755-0.47982z"/>
   <path d="m176-81.423h6.7604v1.2175h-5.3138v3.1654h5.0918v1.2175h-5.0918v3.8744h5.4427v1.2174h-6.8893z"/>
   <path d="m183.58-81.423h1.4466v9.4746h5.2064v1.2174h-6.653z"/>
   <path d="m190.07-81.423h6.7604v1.2175h-5.3138v3.1654h5.0918v1.2175h-5.0918v3.8744h5.4427v1.2174h-6.8893z"/>
   <path d="m201.23-79.997-1.9622 5.321h3.9316zm-0.8164-1.4251h1.64l4.0749 10.692h-1.5039l-0.97396-2.7428h-4.8197l-0.97396 2.7428h-1.5254z"/>
   <path d="m212.42-81.072v1.4108q-0.82356-0.39388-1.554-0.58724-0.73047-0.19336-1.4108-0.19336-1.1816 0-1.8262 0.45834-0.63737 0.45833-0.63737 1.3034 0 0.70899 0.42252 1.0742 0.42969 0.35807 1.6185 0.58008l0.8737 0.17904q1.6185 0.30794 2.3848 1.0885 0.77344 0.77344 0.77344 2.0768 0 1.554-1.0456 2.3561-1.0384 0.80208-3.0508 0.80208-0.75911 0-1.6185-0.17188-0.85221-0.17188-1.7689-0.50846v-1.4896q0.88086 0.49414 1.7259 0.74479 0.84506 0.25065 1.6615 0.25065 1.2389 0 1.9121-0.48698t0.67318-1.3893q0-0.78776-0.48698-1.2318-0.47982-0.44401-1.5827-0.66602l-0.88086-0.17188q-1.6185-0.32227-2.3418-1.0098-0.72331-0.6875-0.72331-1.9121 0-1.418 0.99544-2.2344 1.0026-0.81641 2.7572-0.81641 0.75196 0 1.5326 0.13607t1.597 0.4082z"/>
   <path d="m213.64-81.423h6.7604v1.2175h-5.3138v3.1654h5.0918v1.2175h-5.0918v3.8744h5.4427v1.2174h-6.8893z"/>
   <path d="m245.91-75.744q0.4655 0.15755 0.90235 0.67318 0.44401 0.51563 0.88802 1.418l1.4681 2.9219h-1.554l-1.3678-2.7428q-0.52995-1.0742-1.0312-1.4251-0.49414-0.35091-1.3535-0.35091h-1.5755v4.5189h-1.4466v-10.692h3.2656q1.8333 0 2.7357 0.76628 0.90234 0.76628 0.90234 2.3132 0 1.0098-0.47266 1.6758-0.46549 0.66602-1.3607 0.92383zm-3.6237-4.4902v3.7956h1.819q1.0456 0 1.5755-0.47982 0.53711-0.48698 0.53711-1.4251 0-0.93815-0.53711-1.4108-0.52995-0.47982-1.5755-0.47982z"/>
   <path d="m249.35-81.423h6.7604v1.2175h-5.3138v3.1654h5.0918v1.2175h-5.0918v3.8744h5.4427v1.2174h-6.8893z"/>
   <path d="m258.39-80.234v4.0176h1.819q1.0098 0 1.5612-0.52279t0.55143-1.4896q0-0.95964-0.55143-1.4824t-1.5612-0.52279zm-1.4466-1.1888h3.2656q1.7975 0 2.7142 0.81641 0.92383 0.80925 0.92383 2.3776 0 1.5827-0.92383 2.3919-0.91667 0.80925-2.7142 0.80925h-1.819v4.2969h-1.4466z"/>
   <path d="m264.1-81.423h6.7604v1.2175h-5.3138v3.1654h5.0918v1.2175h-5.0918v3.8744h5.4427v1.2174h-6.8893z"/>
   <path d="m275.27-79.997-1.9622 5.321h3.9316zm-0.81641-1.4251h1.64l4.0749 10.692h-1.5039l-0.97397-2.7428h-4.8197l-0.97396 2.7428h-1.5254z"/>
   <path d="m277.42-81.423h9.045v1.2175h-3.7956v9.4746h-1.4538v-9.4746h-3.7956z"/>
  </g>
  <flowRoot transform="matrix(.26458 0 0 .26458 .6138 .52224)" fill="#000000" font-family="sans-serif" font-size="40px" letter-spacing="0px" word-spacing="0px" style="line-height:1.25" xml:space="preserve"><flowRegion><rect x="235.11" y="-127.57" width="211.45" height="76.336"/></flowRegion><flowPara/></flowRoot>
  <flowRoot transform="matrix(.26458 0 0 .26458 -5.1543 -12.005)" fill="#000000" font-family="sans-serif" font-size="40px" letter-spacing="0px" word-spacing="0px" style="line-height:1.25" xml:space="preserve"><flowRegion><rect x="-24.83" y="-81.765" width="332.5" height="49.659"/></flowRegion><flowPara/></flowRoot>
  <g fill="#fff">
   <path d="m-40.856 32.174h3.8834c2.5287 0 4.0414-0.24836 5.3961-0.92569 2.5739-1.2644 4.0866-4.0188 4.0866-7.3829 0-3.1609-1.3095-5.7799-3.635-7.1797-1.3095-0.79022-3.2964-1.1966-5.9154-1.1966h-3.8156zm3.0932-2.9577v-10.77h0.6096c1.9643 0 3.0254 0.18062 3.9963 0.67733 1.5804 0.8128 2.5513 2.5964 2.5513 4.7413 0 2.0094-0.92569 3.7931-2.4158 4.6059-0.92569 0.51929-2.2126 0.74507-4.064 0.74507z" style="font-feature-settings:normal;font-variant-caps:normal;font-variant-ligatures:normal;font-variant-numeric:normal"/>
   <path d="m-14.022 27.252c0.09031-0.42898 0.11289-0.69991 0.11289-1.1515 0-3.8834-2.7319-6.7282-6.4572-6.7282-3.6802 0-6.5927 2.9125-6.5927 6.5927 0 3.6576 2.9577 6.5024 6.7733 6.5024 2.0546 0 3.6576-0.74507 4.9671-2.2578 0.47413-0.58702 0.79022-1.1063 0.99342-1.7385h-3.2738c-0.76764 0.90311-1.5127 1.2418-2.7545 1.2418-1.7836 0-3.0932-0.94827-3.4544-2.461zm-9.7762-2.6416c0.47413-1.603 1.6933-2.4836 3.477-2.4836 1.8514 0 3.0706 0.88054 3.4544 2.4836z" style="font-feature-settings:normal;font-variant-caps:normal;font-variant-ligatures:normal;font-variant-numeric:normal"/>
   <path d="m-11.055 28.539c1.2869 1.7159 2.4836 2.3932 4.222 2.3932 2.7771 0 4.9671-2.19 4.9671-4.922 0-2.7771-2.1449-4.9445-4.8994-4.9445-1.8288 0-3.3415 0.88053-4.2898 2.5061h-1.874c0.99342-2.4836 3.3641-4.0414 6.1412-4.0414 3.7028 0 6.6153 2.8448 6.6153 6.4347 0 3.6802-2.9351 6.5024-6.7282 6.5024-1.5353 0-2.9577-0.49671-4.1092-1.3998-0.79022-0.63218-1.2644-1.2418-1.9417-2.5287z" stroke="#4310a2" stroke-linejoin="bevel" stroke-width=".165" style="font-feature-settings:normal;font-variant-caps:normal;font-variant-ligatures:normal;font-variant-numeric:normal"/>
   <path d="m12.974 27.252c0.09031-0.42898 0.11289-0.69991 0.11289-1.1515 0-3.8834-2.7319-6.7282-6.4572-6.7282-3.6802 0-6.5927 2.9125-6.5927 6.5927 0 3.6576 2.9577 6.5024 6.7733 6.5024 2.0546 0 3.6576-0.74507 4.9671-2.2578 0.47413-0.58702 0.79022-1.1063 0.99342-1.7385h-3.2738c-0.76764 0.90311-1.5127 1.2418-2.7545 1.2418-1.7836 0-3.0932-0.94827-3.4544-2.461zm-9.7762-2.6416c0.47413-1.603 1.6933-2.4836 3.477-2.4836 1.8514 0 3.0706 0.88054 3.4544 2.4836z" style="font-feature-settings:normal;font-variant-caps:normal;font-variant-ligatures:normal;font-variant-numeric:normal"/>
   <path d="m14.011 32.174h3.0028v-5.8928c0-1.6708 0.11289-2.3932 0.49671-3.0028 0.47413-0.74507 1.2644-1.1515 2.2126-1.1515 0.76765 0 1.3998 0.27094 1.8062 0.79022 0.4064 0.54186 0.58702 1.4676 0.58702 3.1383v6.1186h3.0028v-6.7056c0-2.2352-0.22578-3.3189-0.90311-4.2898-0.8128-1.174-2.1675-1.8062-3.906-1.8062-1.4224 0-2.4158 0.42898-3.5221 1.4901v-1.1966h-2.7771z" style="font-feature-settings:normal;font-variant-caps:normal;font-variant-ligatures:normal;font-variant-numeric:normal"/>
   <path d="m26.969 32.174h3.0028v-9.7762h1.8062v-2.7319h-1.8062v-4.1769h-3.0028v4.1769h-1.4676v2.7319h1.4676z" style="font-feature-settings:normal;font-variant-caps:normal;font-variant-ligatures:normal;font-variant-numeric:normal"/>
  </g>
  <path d="m-6.7082 7.5442-9.8521 13.025c0.1684 0.12217 0.32835 0.25471 0.48317 0.39326 1.877-3.1065 5.4723-5.3878 9.3695-5.3878 3.8822 0 7.3599 2.1373 9.231 5.2136 0.1638-0.1294 0.33231-0.25339 0.50849-0.3669zm5.3e-4 9.8924c-3.4586 0-6.6327 2.2921-8.0062 5.2803 0.51504 0.97852 0.8046 2.1257 0.8046 3.3843 0 0.45156-0.02236 0.72238-0.11265 1.1514h-7.5933l-1.1829 1.5642c0.62387 0.57104 1.5022 0.89658 2.5445 0.89658 1.2418 0 1.9867-0.33867 2.7544-1.2418h3.2737c-0.11287 0.35114-0.26506 0.66723-0.45527 0.97978 1.3764 2.991 4.4934 5.21 7.9732 5.21 3.3936 0 6.4566-2.1754 7.8615-5.0612-0.7083-1.0301-1.1167-2.276-1.1167-3.6344 0-1.3527 0.39568-2.6001 1.0764-3.6385-1.4311-2.8397-4.4795-4.8907-7.8212-4.8907zm11.396 5.1749c-0.71396 0.41566-1.2218 1.0913-1.4903 1.9994h3.0029zm-22.852 0.07803-1.4531 1.9213h2.7497c-0.20458-0.8544-0.64811-1.5014-1.2966-1.9213zm21.452 4.563c0.36125 1.5127 1.6709 2.4608 3.4546 2.4608 1.1305 0 1.8492-0.28577 2.5482-1.0175l-1.0919-1.4433zm7.7267 3.7228c-1.1591 0.99917-2.5323 1.4929-4.2044 1.4929-1.595 0-3.0388-0.49831-4.1806-1.3441-1.3895 2.372-3.7329 4.2276-6.489 5.0033v6.2766c1.0612-1.5579 2.7768-2.4154 4.854-2.4154 3.6576 0 6.5024 2.8219 6.5024 6.457 0 3.7028-2.7993 6.4797-6.5247 6.4797-2.032 0-3.7932-0.88059-4.8317-2.4159v2.1224h-1.6707v-16.181c-0.38808 0.04411-0.78006 0.07286-1.1777 0.07286-3.985 0-7.5568-2.265-9.4051-5.441-1.1315 0.92578-2.4632 1.3854-4.0731 1.3854-1.6478 0-3.1351-0.53142-4.2938-1.4289l-4.0132 5.3056v14.774h6.9086v1.5126h-8.5793v-14.078l-13.037 17.236h72.985zm-25.472 9.0134c2.1449 0 3.658 0.76766 4.8772 2.4836v-2.19h1.6707v12.35h-1.6707v-2.1673c-1.3095 1.7611-2.6643 2.4608-4.764 2.4608-3.7931 0-6.6156-2.7546-6.6156-6.4348 0-3.7028 2.7997-6.5019 6.5024-6.5019zm26.773 0c1.9868 0 3.4096 1.3546 3.4773 3.3414h-1.6934c-0.09031-1.174-0.72236-1.8061-1.8061-1.8061-0.99342 0-1.7839 0.78993-1.7839 1.7834 0 0.72249 0.36148 1.2419 1.1291 1.6257 0.36125 0.18062 0.45148 0.22558 2.3254 0.99322 1.445 0.6096 2.1446 1.6483 2.1446 3.161 0 2.2578-1.5577 3.838-3.7703 3.838-2.3707 0-3.9513-1.5352-3.9739-3.9284h1.6485c0.09031 1.5127 0.9482 2.3931 2.3254 2.3931 1.1966 0 2.0774-0.90279 2.0774-2.1446 0-0.67733-0.29394-1.2643-0.79065-1.603-0.31609-0.2032-0.85794-0.4744-1.603-0.76791-1.7385-0.72249-1.7607-0.72218-2.28-1.1963-0.6096-0.56444-0.92604-1.3323-0.92604-2.2128-3e-6 -2.0094 1.4901-3.4768 3.4995-3.4768zm-26.728 1.5353c-2.6868 0-4.8545 2.1672-4.8545 4.854 0 2.8222 2.1448 5.0121 4.9444 5.0121 2.6642 0 4.7418-2.1897 4.7418-4.9894 0-2.7545-2.1224-4.8767-4.8317-4.8767zm15.361 0c-2.7545 0-4.9217 2.1448-4.9217 4.8767 0 1.3998 0.45129 2.5283 1.4221 3.5218 0.97084 0.99342 2.0995 1.4676 3.4768 1.4676 2.7771 0 4.8772-2.1446 4.8772-4.9894 0-2.7771-2.0774-4.8767-4.8545-4.8767z" fill="#310756" opacity="1"/>
  <path d="m-11.055 28.539c1.2869 1.7159 2.4836 2.3932 4.222 2.3932 2.7771 0 4.9671-2.19 4.9671-4.922 0-2.7771-2.1449-4.9445-4.8994-4.9445-1.8288 0-3.3415 0.88053-4.2898 2.5061h-1.874c0.99342-2.4836 3.3641-4.0414 6.1412-4.0414 3.7028 0 6.6153 2.8448 6.6153 6.4347 0 3.6802-2.9351 6.5024-6.7282 6.5024-1.5353 0-2.9577-0.49671-4.1092-1.3998-0.79022-0.63218-1.2644-1.2418-1.9417-2.5287z" fill="#fff" style="font-feature-settings:normal;font-variant-caps:normal;font-variant-ligatures:normal;font-variant-numeric:normal"/>
 </g>
 <g display="none">
  <flowRoot transform="matrix(.26458 0 0 .26458 48.955 74.145)" display="inline" fill="#300655" fill-opacity=".99608" font-family="sans-serif" font-size="16px" letter-spacing="-1.68px" word-spacing="4.6px" style="line-height:1.25" xml:space="preserve"><flowRegion fill="#300655" fill-opacity=".99608"><rect x="5.6973" y="-84.887" width="283.08" height="60.338" fill="#300655" fill-opacity=".99608"/></flowRegion><flowPara font-size="14.667px">RESEARCH &amp; DEVELOPMENT CONSULTANCY</flowPara></flowRoot>
 </g>
 <g transform="translate(46.652 .11049)" display="none">
  <g stroke="#4310a2" stroke-linejoin="bevel" stroke-width=".165">
   <path transform="translate(5.1543 12.005)" d="m-1.3026-58.08h3.8834c2.5287 0 4.0414-0.24836 5.3961-0.92569 2.5739-1.2644 4.0866-4.0188 4.0866-7.3829 0-3.1609-1.3095-5.7799-3.635-7.1797-1.3095-0.79022-3.2964-1.1966-5.9154-1.1966h-3.8156zm3.0932-2.9577v-10.77h0.6096c1.9643 0 3.0254 0.18062 3.9963 0.67733 1.5804 0.8128 2.5513 2.5964 2.5513 4.7413 0 2.0094-0.92569 3.7931-2.4158 4.6059-0.92569 0.51929-2.2126 0.74507-4.064 0.74507z" display="inline" fill="none" style="font-feature-settings:normal;font-variant-caps:normal;font-variant-ligatures:normal;font-variant-numeric:normal"/>
   <path transform="translate(5.1543 12.005)" d="m25.531-63.002c0.09031-0.42898 0.11289-0.69991 0.11289-1.1515 0-3.8834-2.7319-6.7282-6.4572-6.7282-3.6802 0-6.5927 2.9125-6.5927 6.5927 0 3.6576 2.9577 6.5024 6.7733 6.5024 2.0546 0 3.6576-0.74507 4.9671-2.2578 0.47413-0.58702 0.79022-1.1063 0.99342-1.7385h-3.2738c-0.76764 0.90311-1.5127 1.2418-2.7545 1.2418-1.7836 0-3.0932-0.94827-3.4544-2.461zm-9.7762-2.6416c0.47413-1.603 1.6933-2.4836 3.477-2.4836 1.8514 0 3.0706 0.88053 3.4544 2.4836z" display="inline" fill="none" style="font-feature-settings:normal;font-variant-caps:normal;font-variant-ligatures:normal;font-variant-numeric:normal"/>
   <path transform="translate(5.1543 12.005)" d="m28.498-61.715c1.2869 1.7159 2.4836 2.3932 4.222 2.3932 2.7771 0 4.9671-2.19 4.9671-4.922 0-2.7771-2.1449-4.9445-4.8994-4.9445-1.8288 0-3.3415 0.88053-4.2898 2.5061h-1.874c0.99342-2.4836 3.3641-4.0414 6.1412-4.0414 3.7028 0 6.6153 2.8448 6.6153 6.4347 0 3.6802-2.9351 6.5024-6.7282 6.5024-1.5353 0-2.9577-0.49671-4.1092-1.3998-0.79022-0.63218-1.2644-1.2418-1.9417-2.5287z" display="inline" fill="#fff" style="font-feature-settings:normal;font-variant-caps:normal;font-variant-ligatures:normal;font-variant-numeric:normal"/>
  </g>
  <g fill="none" stroke="#4310a2" stroke-linejoin="bevel" stroke-width=".165">
   <path transform="translate(5.1543 12.005)" d="m52.528-63.002c0.09031-0.42898 0.11289-0.69991 0.11289-1.1515 0-3.8834-2.7319-6.7282-6.4572-6.7282-3.6802 0-6.5927 2.9125-6.5927 6.5927 0 3.6576 2.9577 6.5024 6.7733 6.5024 2.0546 0 3.6576-0.74507 4.9671-2.2578 0.47413-0.58702 0.79022-1.1063 0.99342-1.7385h-3.2738c-0.76764 0.90311-1.5127 1.2418-2.7545 1.2418-1.7836 0-3.0932-0.94827-3.4544-2.461zm-9.7762-2.6416c0.47413-1.603 1.6933-2.4836 3.477-2.4836 1.8514 0 3.0706 0.88053 3.4544 2.4836z" display="inline" style="font-feature-settings:normal;font-variant-caps:normal;font-variant-ligatures:normal;font-variant-numeric:normal"/>
   <path transform="translate(5.1543 12.005)" d="m53.565-58.08h3.0028v-5.8928c0-1.6708 0.11289-2.3932 0.49671-3.0028 0.47413-0.74507 1.2644-1.1515 2.2126-1.1515 0.76765 0 1.3998 0.27093 1.8062 0.79022 0.4064 0.54187 0.58702 1.4676 0.58702 3.1383v6.1186h3.0028v-6.7056c0-2.2352-0.22578-3.3189-0.90311-4.2898-0.8128-1.174-2.1675-1.8062-3.906-1.8062-1.4224 0-2.4158 0.42898-3.5221 1.4901v-1.1966h-2.7771z" display="inline" style="font-feature-settings:normal;font-variant-caps:normal;font-variant-ligatures:normal;font-variant-numeric:normal"/>
   <path transform="translate(5.1543 12.005)" d="m66.522-58.08h3.0028v-9.7762h1.8062v-2.7319h-1.8062v-4.1769h-3.0028v4.1769h-1.4676v2.7319h1.4676z" display="inline" style="font-feature-settings:normal;font-variant-caps:normal;font-variant-ligatures:normal;font-variant-numeric:normal"/>
  </g>
  <path transform="scale(.26458)" d="m143.62-267.23-37.236 49.229c6.1809 4.4841 10.02 11.965 10.02 20.908 0 1.7067-0.0845 2.7302-0.42578 4.3516h-28.699l-4.4707 5.9121c2.3579 2.1583 5.6778 3.3887 9.6172 3.3887 4.6933 0 7.5088-1.28 10.41-4.6934h12.373c-0.768 2.3893-1.9619 4.3536-3.7539 6.5723-4.9493 5.7173-11.008 8.5332-18.773 8.5332-6.2279 0-11.849-2.0085-16.229-5.4004l-70.756 93.545h275.85l-70.941-93.787c-4.381 3.7764-9.5708 5.6426-15.891 5.6426-14.421 0-25.6-10.752-25.6-24.576 0-8.8645 4.4747-16.546 11.318-20.955zm43.074 56.947c-2.6984 1.571-4.6177 4.1245-5.6328 7.5566h11.35zm-86.371 0.29493-5.4922 7.2617h10.393c-0.7732-3.2292-2.4496-5.6744-4.9004-7.2617zm81.078 17.246c1.3653 5.7173 6.3153 9.3008 13.057 9.3008 4.2728 0 6.9891-1.0801 9.6309-3.8457l-4.127-5.4551z" display="inline" fill="#310756" fill-opacity=".99528"/>
  <path transform="translate(5.1543 12.005)" d="m36.236-11.777-41.131 56.841h81.119z" display="inline" fill="none" stroke="#fa0f2f" stroke-width=".26458px"/>
  <text transform="translate(5.1543 12.005)" x="-0.34978348" y="17.289722" display="inline" fill="none" fill-opacity=".66274" font-family="'URW Gothic L'" font-size="22.578px" font-weight="600" letter-spacing=".0052917px" stroke="#4310a2" stroke-linejoin="bevel" stroke-width=".165" word-spacing="0px" style="font-feature-settings:normal;font-variant-caps:normal;font-variant-ligatures:normal;font-variant-numeric:normal;line-height:1" xml:space="preserve"><tspan x="-0.34978348" y="17.289722" fill="none" fill-opacity=".66274" font-family="'URW Gothic L'" font-size="22.578px" font-weight="600" letter-spacing="-1.0319px" stroke="#4310a2" stroke-linejoin="bevel" stroke-width=".165" style="font-feature-settings:normal;font-variant-caps:normal;font-variant-ligatures:normal;font-variant-numeric:normal;line-height:1"><tspan x="-0.34978348" y="17.289722" fill="none" fill-opacity=".66274" font-family="'URW Gothic L'" font-size="22.578px" font-weight="600" letter-spacing="-1.0319px" stroke="#4310a2" stroke-linejoin="bevel" stroke-width=".165" style="font-feature-settings:normal;font-variant-caps:normal;font-variant-ligatures:normal;font-variant-numeric:normal;line-height:1">De   ent</tspan></tspan></text>
  <g fill-opacity=".99528">
   <path transform="translate(5.1543 12.005)" d="m36.278-2.9089c-5.442 0-10.236 3.1761-12.545 7.7112 0.96341 0.30732 1.8105 0.83087 2.498 1.5245 1.7885-3.7076 5.6661-6.3247 10.084-6.3247 4.4189 0 8.2469 2.5867 10.03 6.3154 0.69983-0.67316 1.5508-1.1905 2.5017-1.5002-2.3048-4.5734-7.0688-7.7261-12.568-7.7261zm-0.1819 6.1857c-3.675 0-6.7314 2.3651-7.6047 5.9309h4.039c0.8005-1.6738 2.0375-2.5471 3.6385-2.5471 2.2559 0 4.039 1.9648 4.039 4.5119 0 2.4743-1.7467 4.4028-4.039 4.4028-1.6374 0-3.0564-1.0188-3.6385-2.6562h-4.039c0.58218 3.3839 3.9298 6.0405 7.6776 6.0405 4.4027 0 7.8595-3.457 7.8595-7.8233 0-4.3663-3.5296-7.8595-7.9323-7.8595zm10.253 12.479c-1.7809 3.7583-5.6116 6.3686-10.035 6.3686-4.4416 0-8.2146-2.5224-10.011-6.2554-0.73626 0.69843-1.5614 1.18-2.498 1.4511 2.3083 4.5417 6.995 7.6063 12.509 7.6063 5.4691 0 10.222-3.1477 12.526-7.7019-0.95004-0.31206-1.7964-0.81641-2.4918-1.4686z" display="inline" fill="#760a6f" style="font-feature-settings:normal;font-variant-caps:normal;font-variant-ligatures:normal;font-variant-numeric:normal"/>
   <text transform="translate(5.1543 12.005)" x="11.097287" y="39.140537" display="inline" fill="#760a6f" font-family="'URW Gothic L'" font-size="22.578px" letter-spacing="-.4789px" stroke="#000000" stroke-linejoin="bevel" stroke-opacity="0" stroke-width=".165" word-spacing="0px" style="font-feature-settings:normal;font-variant-caps:normal;font-variant-ligatures:normal;font-variant-numeric:normal;line-height:1.25" xml:space="preserve"><tspan x="11.097287" y="39.140537" fill="#760a6f" fill-opacity=".99528" font-family="'URW Gothic L'" font-size="22.578px" stroke="#000000" stroke-linejoin="bevel" stroke-opacity="0" stroke-width=".165" style="font-feature-settings:normal;font-variant-caps:normal;font-variant-ligatures:normal;font-variant-numeric:normal"><tspan x="11.097287" y="39.140537" dx="0 0" rotate="0 0" fill="#760a6f" fill-opacity=".99528" font-family="'URW Gothic L'" font-size="22.578px" stroke="#000000" stroke-linejoin="bevel" stroke-opacity="0" stroke-width=".165" style="font-feature-settings:normal;font-variant-caps:normal;font-variant-ligatures:normal;font-variant-numeric:normal">Labs</tspan></tspan></text>
   <path transform="translate(5.1543 12.005)" d="m32.846-74.68c-5.8056 0-10.707 4.7376-10.707 10.351 0 5.8877 4.7649 10.598 10.707 10.598 5.8603 0 10.68-4.7376 10.68-10.461 0-5.7782-4.8197-10.488-10.68-10.488zm0 1.8622c4.7102 0 8.6262 3.916 8.6262 8.6536 0 4.6828-3.916 8.5714-8.6262 8.5714-4.7649 0-8.6536-3.8886-8.6536-8.681 0-4.628 3.9708-8.544 8.6536-8.544z" display="inline" fill="#fff" style="font-feature-settings:normal;font-variant-caps:normal;font-variant-ligatures:normal;font-variant-numeric:normal"/>
   <text transform="translate(5.1543 12.005)" x="7.6737232" y="-37.621979" display="inline" fill="#ffffff" font-family="'URW Gothic L'" font-size="22.578px" letter-spacing="-.4789px" stroke="#000000" stroke-linejoin="bevel" stroke-opacity="0" stroke-width=".165" word-spacing="0px" style="font-feature-settings:normal;font-variant-caps:normal;font-variant-ligatures:normal;font-variant-numeric:normal;line-height:1.25" xml:space="preserve"><tspan x="7.6737232" y="-37.621979" fill="#ffffff" fill-opacity=".99528" font-family="'URW Gothic L'" font-size="22.578px" stroke="#000000" stroke-linejoin="bevel" stroke-opacity="0" stroke-width=".165" style="font-feature-settings:normal;font-variant-caps:normal;font-variant-ligatures:normal;font-variant-numeric:normal"><tspan x="7.6737232" y="-37.621979" dx="0 0" rotate="0 0" fill="#ffffff" fill-opacity=".99528" font-family="'URW Gothic L'" font-size="22.578px" stroke="#000000" stroke-linejoin="bevel" stroke-opacity="0" stroke-width=".165" style="font-feature-settings:normal;font-variant-caps:normal;font-variant-ligatures:normal;font-variant-numeric:normal">Labs</tspan></tspan></text>
  </g>
  <path transform="translate(5.1543 12.005)" d="m28.498-61.715c1.2869 1.7159 2.4836 2.3932 4.222 2.3932 2.7771 0 4.9671-2.19 4.9671-4.922 0-2.7771-2.1449-4.9445-4.8994-4.9445-1.8288 0-3.3415 0.88053-4.2898 2.5061h-1.874c0.99342-2.4836 3.3641-4.0414 6.1412-4.0414 3.7028 0 6.6153 2.8448 6.6153 6.4347 0 3.6802-2.9351 6.5024-6.7282 6.5024-1.5353 0-2.9577-0.49671-4.1092-1.3998-0.79022-0.63218-1.2644-1.2418-1.9417-2.5287z" display="inline" fill="#fff" style="font-feature-settings:normal;font-variant-caps:normal;font-variant-ligatures:normal;font-variant-numeric:normal"/>
  <g fill-opacity=".99528">
   <path transform="translate(5.1543 12.005)" d="m128.61-82.135-36.492 48.246h72.985z" display="inline" fill="#760a6f"/>
   <g transform="matrix(1.2129 0 0 1.2129 64.538 -19.481)" display="inline" fill="#fff" style="font-feature-settings:normal;font-variant-caps:normal;font-variant-ligatures:normal;font-variant-numeric:normal" aria-label="O">
    <path d="m57.074-35.138c-4.7865 0-8.8279 3.906-8.8279 8.5344 0 4.8542 3.9285 8.7376 8.8279 8.7376 4.8316 0 8.8053-3.906 8.8053-8.6247 0-4.7639-3.9737-8.6473-8.8053-8.6473zm0 1.5353c3.8834 0 7.112 3.2286 7.112 7.1346 0 3.8608-3.2286 7.0668-7.112 7.0668-3.9285 0-7.1346-3.206-7.1346-7.1572 0-3.8156 3.2738-7.0443 7.1346-7.0443z" fill="#fff" fill-opacity=".99528" style="font-feature-settings:normal;font-variant-caps:normal;font-variant-ligatures:normal;font-variant-numeric:normal"/>
   </g>
   <text transform="translate(5.1543 12.005)" x="103.43797" y="-37.046371" display="inline" fill="#ffffff" font-family="'URW Gothic L'" font-size="22.578px" letter-spacing="-.4789px" stroke="#000000" stroke-linejoin="bevel" stroke-opacity="0" stroke-width=".165" word-spacing="0px" style="font-feature-settings:normal;font-variant-caps:normal;font-variant-ligatures:normal;font-variant-numeric:normal;line-height:1.25" xml:space="preserve"><tspan x="103.43797" y="-37.046371" fill="#ffffff" fill-opacity=".99528" font-family="'URW Gothic L'" font-size="22.578px" stroke="#000000" stroke-linejoin="bevel" stroke-opacity="0" stroke-width=".165" style="font-feature-settings:normal;font-variant-caps:normal;font-variant-ligatures:normal;font-variant-numeric:normal"><tspan x="103.43797" y="-37.046371" dx="0 0" rotate="0 0" fill="#ffffff" fill-opacity=".99528" font-family="'URW Gothic L'" font-size="22.578px" stroke="#000000" stroke-linejoin="bevel" stroke-opacity="0" stroke-width=".165" style="font-feature-settings:normal;font-variant-caps:normal;font-variant-ligatures:normal;font-variant-numeric:normal">Labs</tspan></tspan></text>
  </g>
  <text transform="translate(5.1543 12.005)" x="93.15686" y="-57.254105" display="inline" fill="#adadad" font-family="'URW Gothic L'" font-size="22.578px" font-weight="600" letter-spacing=".0052917px" stroke-linejoin="bevel" stroke-width=".165" word-spacing="0px" style="font-feature-settings:normal;font-variant-caps:normal;font-variant-ligatures:normal;font-variant-numeric:normal;line-height:1" xml:space="preserve"><tspan x="93.15686" y="-57.254105" fill="#adadad" font-family="'URW Gothic L'" font-size="22.578px" font-weight="600" letter-spacing="-1.0319px" stroke-linejoin="bevel" stroke-width=".165" style="font-feature-settings:normal;font-variant-caps:normal;font-variant-ligatures:normal;font-variant-numeric:normal;line-height:1"><tspan x="93.15686" y="-57.254105" fill="#adadad" font-family="'URW Gothic L'" font-size="22.578px" font-weight="600" letter-spacing="-1.0319px" stroke-linejoin="bevel" stroke-width=".165" style="font-feature-settings:normal;font-variant-caps:normal;font-variant-ligatures:normal;font-variant-numeric:normal;line-height:1">Decent</tspan></tspan></text>
  <flowRoot transform="matrix(.26458 0 0 .26458 -1.0583 0)" display="inline" fill="#300655" fill-opacity=".99608" font-family="sans-serif" font-size="16px" letter-spacing="0px" word-spacing="0px" style="line-height:1.25" xml:space="preserve"><flowRegion fill="#300655" fill-opacity=".99608"><rect x="5.6973" y="-84.887" width="283.08" height="60.338" fill="#300655" fill-opacity=".99608"/></flowRegion><flowPara font-size="14.667px">RESEARCH DEVELOP RELEASE REPEAT</flowPara></flowRoot>
  <g fill="none" stroke="#300655" stroke-linejoin="bevel" stroke-opacity=".99608" stroke-width=".165">
   <path transform="translate(5.1543 12.005)" d="m106.74 30.443h3.8834c2.5287 0 4.0414-0.24836 5.3961-0.92569 2.5739-1.2644 4.0866-4.0188 4.0866-7.3829 0-3.1609-1.3095-5.7799-3.635-7.1797-1.3095-0.79022-3.2964-1.1966-5.9154-1.1966h-3.8156zm3.0932-2.9577v-10.77h0.6096c1.9643 0 3.0254 0.18062 3.9963 0.67733 1.5804 0.8128 2.5513 2.5964 2.5513 4.7413 0 2.0094-0.92569 3.7931-2.4158 4.6059-0.92569 0.51929-2.2126 0.74507-4.064 0.74507z" display="inline" style="font-feature-settings:normal;font-variant-caps:normal;font-variant-ligatures:normal;font-variant-numeric:normal"/>
   <path transform="translate(5.1543 12.005)" d="m133.57 25.521c0.0903-0.42898 0.11289-0.69991 0.11289-1.1515 0-3.8834-2.7319-6.7282-6.4572-6.7282-3.6802 0-6.5927 2.9125-6.5927 6.5927 0 3.6576 2.9577 6.5024 6.7733 6.5024 2.0546 0 3.6576-0.74507 4.9671-2.2578 0.47414-0.58702 0.79023-1.1063 0.99343-1.7385h-3.2738c-0.76764 0.90311-1.5127 1.2418-2.7545 1.2418-1.7836 0-3.0932-0.94827-3.4544-2.461zm-9.7762-2.6416c0.47413-1.603 1.6933-2.4836 3.477-2.4836 1.8514 0 3.0706 0.88053 3.4544 2.4836z" display="inline" style="font-feature-settings:normal;font-variant-caps:normal;font-variant-ligatures:normal;font-variant-numeric:normal"/>
   <path transform="translate(5.1543 12.005)" d="m160.57 25.521c0.0903-0.42898 0.11289-0.69991 0.11289-1.1515 0-3.8834-2.7319-6.7282-6.4572-6.7282-3.6802 0-6.5927 2.9125-6.5927 6.5927 0 3.6576 2.9577 6.5024 6.7733 6.5024 2.0546 0 3.6576-0.74507 4.9671-2.2578 0.47413-0.58702 0.79022-1.1063 0.99342-1.7385h-3.2738c-0.76764 0.90311-1.5127 1.2418-2.7545 1.2418-1.7836 0-3.0932-0.94827-3.4544-2.461zm-9.7762-2.6416c0.47414-1.603 1.6933-2.4836 3.477-2.4836 1.8514 0 3.0706 0.88053 3.4544 2.4836z" display="inline" style="font-feature-settings:normal;font-variant-caps:normal;font-variant-ligatures:normal;font-variant-numeric:normal"/>
   <path transform="translate(5.1543 12.005)" d="m161.61 30.443h3.0028v-5.8928c0-1.6708 0.11289-2.3932 0.49671-3.0028 0.47413-0.74507 1.2644-1.1515 2.2126-1.1515 0.76765 0 1.3998 0.27093 1.8062 0.79022 0.4064 0.54187 0.58703 1.4676 0.58703 3.1383v6.1186h3.0028v-6.7056c0-2.2352-0.22578-3.3189-0.90311-4.2898-0.8128-1.174-2.1675-1.8062-3.906-1.8062-1.4224 0-2.4158 0.42898-3.5221 1.4901v-1.1966h-2.7771z" display="inline" style="font-feature-settings:normal;font-variant-caps:normal;font-variant-ligatures:normal;font-variant-numeric:normal"/>
   <path transform="translate(5.1543 12.005)" d="m174.56 30.443h3.0028v-9.7762h1.8062v-2.7319h-1.8062v-4.1769h-3.0028v4.1769h-1.4676v2.7319h1.4676z" display="inline" style="font-feature-settings:normal;font-variant-caps:normal;font-variant-ligatures:normal;font-variant-numeric:normal"/>
  </g>
  <path transform="scale(.26458)" d="m551.96 67.342-37.236 49.229c6.1809 4.4841 10.02 11.965 10.02 20.908 0 1.7067-0.0846 2.7302-0.42578 4.3516h-28.699l-4.4707 5.9121c2.3579 2.1583 5.6778 3.3887 9.6172 3.3887 4.6933 0 7.5088-1.28 10.41-4.6934h12.373c-0.768 2.3893-1.9619 4.3536-3.7539 6.5723-4.9493 5.7173-11.008 8.5332-18.773 8.5332-6.2279 0-11.849-2.0085-16.229-5.4004l-15.17 20.057v55.838h26.113v5.7168h-32.428v-53.207l-49.271 65.141h275.85l-70.941-93.787c-4.381 3.7764-9.5708 5.6426-15.891 5.6426-14.421 0-25.6-10.752-25.6-24.576 0-8.8645 4.4747-16.546 11.318-20.955zm43.074 56.947c-2.6984 1.571-4.6177 4.1245-5.6328 7.5566h11.35zm-86.371 0.29492-5.4922 7.2617h10.393c-0.77322-3.2292-2.4496-5.6744-4.9004-7.2617zm81.078 17.246c1.3653 5.7173 6.3153 9.3008 13.057 9.3008 4.2728 0 6.9891-1.0801 9.6309-3.8457l-4.127-5.4551zm-33.33 32.863h6.3164v24.404c4.0107-5.888 10.495-9.1309 18.346-9.1309 13.824 0 24.576 10.668 24.576 24.406 0 13.995-10.582 24.49-24.662 24.49-7.68 0-14.334-3.3282-18.26-9.1309v8.0215h-6.3164zm-33.738 15.273c8.1067 0 13.824 2.9014 18.432 9.3867v-8.2774h6.3144v46.678h-6.3144v-8.1914c-4.9493 6.656-10.07 9.3008-18.006 9.3008-14.336 0-25.002-10.411-25.002-24.32 0-13.995 10.582-24.576 24.576-24.576zm101.19 0c7.5093 0 12.885 5.1215 13.141 12.631h-6.4004c-0.34133-4.4373-2.7302-6.8281-6.8262-6.8281-3.7547 0-6.7402 2.9875-6.7402 6.7422 0 2.7307 1.3643 4.6939 4.2656 6.1445 1.3653 0.68267 1.7064 0.85257 8.7891 3.7539 5.4613 2.304 8.1074 6.2299 8.1074 11.947 1e-5 8.5333-5.8893 14.506-14.252 14.506-8.96 0-14.932-5.8023-15.018-14.848h6.2285c0.34133 5.7173 3.5837 9.0449 8.7891 9.0449 4.5227 0 7.8516-3.4121 7.8516-8.1055 0-2.56-1.109-4.7786-2.9863-6.0586-1.1947-0.768-3.2426-1.793-6.0586-2.9023-6.5707-2.7307-6.6565-2.7314-8.6191-4.5234-2.304-2.1333-3.498-5.0333-3.498-8.3613 0-7.5947 5.6319-13.143 13.227-13.143zm-101.02 5.8027c-10.155 0-18.346 8.193-18.346 18.348 0 10.667 8.1062 18.943 18.688 18.943 10.069 0 17.92-8.2761 17.92-18.857 0-10.411-8.0217-18.434-18.262-18.434zm58.061 0c-10.411 0-18.604 8.1083-18.604 18.434 0 5.2907 1.7076 9.5559 5.377 13.311 3.6693 3.7547 7.9353 5.5469 13.141 5.5469 10.496 0 18.432-8.1054 18.432-18.857 0-10.496-7.8497-18.434-18.346-18.434z" display="inline" fill="#310756" fill-opacity=".99528"/>
  <path transform="translate(5.1543 12.005)" d="m136.54 26.808c1.2869 1.7159 2.4836 2.3932 4.222 2.3932 2.7771 0 4.9671-2.19 4.9671-4.922 0-2.7771-2.1449-4.9445-4.8994-4.9445-1.8288 0-3.3415 0.88053-4.2898 2.5061h-1.874c0.99342-2.4836 3.3641-4.0414 6.1412-4.0414 3.7028 0 6.6153 2.8448 6.6153 6.4347 0 3.6802-2.9351 6.5024-6.7282 6.5024-1.5353 0-2.9577-0.49671-4.1092-1.3998-0.79022-0.63218-1.2644-1.2418-1.9417-2.5287z" display="inline" fill="#fff" style="font-feature-settings:normal;font-variant-caps:normal;font-variant-ligatures:normal;font-variant-numeric:normal"/>
  <g transform="matrix(.26458 0 0 .26458 106.98 88.523)" display="inline" fill="#300655" fill-opacity=".99608" aria-label="RESEARCH DEVELOP RELEASE REPEAT">
   <path d="m12.207-75.743q0.4655 0.15755 0.90234 0.67318 0.44401 0.51562 0.88802 1.418l1.4681 2.9219h-1.554l-1.3678-2.7428q-0.52995-1.0742-1.0312-1.4251-0.49414-0.35091-1.3535-0.35091h-1.5755v4.5189h-1.4466v-10.692h3.2656q1.8333 0 2.7357 0.76628t0.90234 2.3132q0 1.0098-0.47266 1.6758-0.4655 0.66602-1.3607 0.92383zm-3.6237-4.4902v3.7956h1.819q1.0456 0 1.5755-0.47982 0.53711-0.48698 0.53711-1.4251t-0.53711-1.4108q-0.52995-0.47982-1.5755-0.47982z"/>
   <path d="m17.335-81.423h6.7604v1.2174h-5.3138v3.1654h5.0918v1.2174h-5.0918v3.8743h5.4427v1.2174h-6.8893z"/>
   <path d="m33.025-81.072v1.4108q-0.82357-0.39388-1.554-0.58724-0.73047-0.19336-1.4108-0.19336-1.1816 0-1.8262 0.45833-0.63737 0.45833-0.63737 1.3034 0 0.70898 0.42253 1.0742 0.42969 0.35807 1.6185 0.58008l0.8737 0.17904q1.6185 0.30794 2.3848 1.0885 0.77344 0.77344 0.77344 2.0768 0 1.554-1.0456 2.3561-1.0384 0.80208-3.0508 0.80208-0.75912 0-1.6185-0.17188-0.85221-0.17188-1.7689-0.50846v-1.4896q0.88086 0.49414 1.7259 0.74479t1.6615 0.25065q1.2389 0 1.9121-0.48698 0.67318-0.48698 0.67318-1.3893 0-0.78776-0.48698-1.2318-0.47982-0.44401-1.5827-0.66602l-0.88086-0.17188q-1.6185-0.32227-2.3418-1.0098-0.72331-0.6875-0.72331-1.9121 0-1.418 0.99544-2.2344 1.0026-0.81641 2.7572-0.81641 0.75195 0 1.5326 0.13607t1.597 0.4082z"/>
   <path d="m35.926-81.423h6.7604v1.2174h-5.3138v3.1654h5.0918v1.2174h-5.0918v3.8743h5.4427v1.2174h-6.8893z"/>
   <path d="m48.781-79.997-1.9622 5.321h3.9316zm-0.81641-1.4251h1.64l4.0749 10.692h-1.5039l-0.97396-2.7428h-4.8197l-0.97396 2.7428h-1.5254z"/>
   <path d="m60.303-75.743q0.4655 0.15755 0.90234 0.67318 0.44401 0.51562 0.88802 1.418l1.4681 2.9219h-1.554l-1.3678-2.7428q-0.52995-1.0742-1.0312-1.4251-0.49414-0.35091-1.3535-0.35091h-1.5755v4.5189h-1.4466v-10.692h3.2656q1.8333 0 2.7357 0.76628 0.90234 0.76628 0.90234 2.3132 0 1.0098-0.47266 1.6758-0.4655 0.66602-1.3607 0.92383zm-3.6237-4.4902v3.7956h1.819q1.0456 0 1.5755-0.47982 0.53711-0.48698 0.53711-1.4251t-0.53711-1.4108q-0.52995-0.47982-1.5755-0.47982z"/>
   <path d="m72.721-80.599v1.5254q-0.73047-0.68034-1.5612-1.0169-0.82357-0.33659-1.7546-0.33659-1.8333 0-2.8073 1.1243-0.97396 1.1172-0.97396 3.237 0 2.1126 0.97396 3.237 0.97396 1.1172 2.8073 1.1172 0.93099 0 1.7546-0.33659 0.83073-0.33659 1.5612-1.0169v1.5111q-0.75911 0.51562-1.6113 0.77344-0.84505 0.25781-1.7904 0.25781-2.4277 0-3.8242-1.4824-1.3965-1.4896-1.3965-4.0605 0-2.5781 1.3965-4.0605 1.3965-1.4896 3.8242-1.4896 0.95964 0 1.8047 0.25781 0.85221 0.25065 1.597 0.75911z"/>
   <path d="m74.97-81.423h1.4466v4.3828h5.2565v-4.3828h1.4466v10.692h-1.4466v-5.0918h-5.2565v5.0918h-1.4466z"/>
   <path d="m92.115-80.234v8.3145h1.7474q2.2129 0 3.237-1.0026 1.0312-1.0026 1.0312-3.1654 0-2.1484-1.0312-3.1439-1.0241-1.0026-3.237-1.0026zm-1.4466-1.1888h2.972q3.1081 0 4.5618 1.2962 1.4538 1.2891 1.4538 4.0391 0 2.7643-1.4609 4.0605-1.4609 1.2962-4.5547 1.2962h-2.972z"/>
   <path d="m101.95-81.423h6.7604v1.2174h-5.3138v3.1654h5.0918v1.2174h-5.0918v3.8743h5.4427v1.2174h-6.8893z"/>
   <path d="m113.99-70.73-4.082-10.692h1.5111l3.3874 9.002 3.3945-9.002h1.5039l-4.0749 10.692z"/>
   <path d="m121.26-81.423h6.7604v1.2174h-5.3138v3.1654h5.0918v1.2174h-5.0918v3.8743h5.4427v1.2174h-6.8893z"/>
   <path d="m130.54-81.423h1.4466v9.4746h5.2064v1.2174h-6.653z"/>
   <path d="m142.53-80.441q-1.5755 0-2.5065 1.1745-0.92383 1.1745-0.92383 3.2012 0 2.0195 0.92383 3.194 0.93099 1.1745 2.5065 1.1745t2.4922-1.1745q0.92383-1.1745 0.92383-3.194 0-2.0267-0.92383-3.2012-0.91667-1.1745-2.4922-1.1745zm0-1.1745q2.2487 0 3.595 1.5111 1.3464 1.5039 1.3464 4.0391 0 2.528-1.3464 4.0391-1.3464 1.5039-3.595 1.5039-2.2559 0-3.6094-1.5039-1.3464-1.5039-1.3464-4.0391 0-2.5352 1.3464-4.0391 1.3535-1.5111 3.6094-1.5111z"/>
   <path d="m151.18-80.234v4.0176h1.819q1.0098 0 1.5612-0.52279 0.55143-0.52279 0.55143-1.4896 0-0.95964-0.55143-1.4824-0.55143-0.52279-1.5612-0.52279zm-1.4466-1.1888h3.2656q1.7975 0 2.7142 0.81641 0.92382 0.80924 0.92382 2.3776 0 1.5827-0.92382 2.3919-0.91667 0.80924-2.7142 0.80924h-1.819v4.2969h-1.4466z"/>
   <path d="m168.33-75.743q0.46549 0.15755 0.90234 0.67318 0.44401 0.51562 0.88802 1.418l1.4681 2.9219h-1.554l-1.3678-2.7428q-0.52995-1.0742-1.0312-1.4251-0.49414-0.35091-1.3535-0.35091h-1.5755v4.5189h-1.4466v-10.692h3.2656q1.8333 0 2.7357 0.76628 0.90234 0.76628 0.90234 2.3132 0 1.0098-0.47265 1.6758-0.4655 0.66602-1.3607 0.92383zm-3.6237-4.4902v3.7956h1.819q1.0456 0 1.5755-0.47982 0.53711-0.48698 0.53711-1.4251t-0.53711-1.4108q-0.52995-0.47982-1.5755-0.47982z"/>
   <path d="m173.45-81.423h6.7604v1.2174h-5.3138v3.1654h5.0918v1.2174h-5.0918v3.8743h5.4427v1.2174h-6.8893z"/>
   <path d="m182.74-81.423h1.4466v9.4746h5.2064v1.2174h-6.653z"/>
   <path d="m190.9-81.423h6.7604v1.2174h-5.3138v3.1654h5.0918v1.2174h-5.0918v3.8743h5.4427v1.2174h-6.8893z"/>
   <path d="m203.75-79.997-1.9622 5.321h3.9316zm-0.81641-1.4251h1.64l4.0749 10.692h-1.5039l-0.97396-2.7428h-4.8197l-0.97396 2.7428h-1.5254z"/>
   <path d="m216.62-81.072v1.4108q-0.82357-0.39388-1.554-0.58724t-1.4108-0.19336q-1.1816 0-1.8262 0.45833-0.63737 0.45833-0.63737 1.3034 0 0.70898 0.42253 1.0742 0.42968 0.35807 1.6185 0.58008l0.87369 0.17904q1.6185 0.30794 2.3848 1.0885 0.77344 0.77344 0.77344 2.0768 0 1.554-1.0456 2.3561-1.0384 0.80208-3.0508 0.80208-0.75911 0-1.6185-0.17188-0.85221-0.17188-1.7689-0.50846v-1.4896q0.88086 0.49414 1.7259 0.74479 0.84505 0.25065 1.6614 0.25065 1.2389 0 1.9121-0.48698 0.67318-0.48698 0.67318-1.3893 0-0.78776-0.48698-1.2318-0.47982-0.44401-1.5827-0.66602l-0.88086-0.17188q-1.6185-0.32227-2.3418-1.0098-0.7233-0.6875-0.7233-1.9121 0-1.418 0.99544-2.2344 1.0026-0.81641 2.7572-0.81641 0.75195 0 1.5326 0.13607t1.597 0.4082z"/>
   <path d="m219.52-81.423h6.7604v1.2174h-5.3138v3.1654h5.0918v1.2174h-5.0918v3.8743h5.4427v1.2174h-6.8893z"/>
   <path d="m238.54-75.743q0.46549 0.15755 0.90234 0.67318 0.44401 0.51562 0.88802 1.418l1.4681 2.9219h-1.554l-1.3678-2.7428q-0.52994-1.0742-1.0312-1.4251-0.49414-0.35091-1.3535-0.35091h-1.5755v4.5189h-1.4466v-10.692h3.2656q1.8333 0 2.7357 0.76628 0.90234 0.76628 0.90234 2.3132 0 1.0098-0.47266 1.6758-0.46549 0.66602-1.3607 0.92383zm-3.6237-4.4902v3.7956h1.819q1.0456 0 1.5755-0.47982 0.53711-0.48698 0.53711-1.4251t-0.53711-1.4108q-0.52995-0.47982-1.5755-0.47982z"/>
   <path d="m243.67-81.423h6.7604v1.2174h-5.3138v3.1654h5.0918v1.2174h-5.0918v3.8743h5.4427v1.2174h-6.8893z"/>
   <path d="m254.39-80.234v4.0176h1.819q1.0098 0 1.5612-0.52279 0.55143-0.52279 0.55143-1.4896 0-0.95964-0.55143-1.4824-0.55143-0.52279-1.5612-0.52279zm-1.4466-1.1888h3.2656q1.7975 0 2.7142 0.81641 0.92383 0.80924 0.92383 2.3776 0 1.5827-0.92383 2.3919-0.91666 0.80924-2.7142 0.80924h-1.819v4.2969h-1.4466z"/>
   <path d="m261.8-81.423h6.7604v1.2174h-5.3138v3.1654h5.0918v1.2174h-5.0918v3.8743h5.4427v1.2174h-6.8893z"/>
   <path d="m274.65-79.997-1.9622 5.321h3.9316zm-0.81641-1.4251h1.64l4.0749 10.692h-1.5039l-0.97396-2.7428h-4.8197l-0.97396 2.7428h-1.5254z"/>
   <path d="m278.48-81.423h9.0449v1.2174h-3.7956v9.4746h-1.4538v-9.4746h-3.7956z"/>
  </g>
  <path transform="translate(5.1543 12.005)" d="m140.89 13.841c-3.964 0-7.5053 2.2093-9.354 5.3976 0.55331 0.49822 1.0164 1.098 1.3694 1.7803 1.3219-3.0844 4.4499-5.316 7.9845-5.316 3.3973 0 6.3808 2.0377 7.7804 4.9511 0.38924-0.60911 0.87627-1.1475 1.4402-1.5947-1.8599-3.1164-5.3071-5.2183-9.2206-5.2183zm-7.9478 13.837c-0.15725 0.26344-0.34097 0.5233-0.56276 0.79789-0.27611 0.31899-0.56651 0.60173-0.87023 0.85266 1.818 3.2657 5.3245 5.4612 9.3808 5.4612 3.9905 0 7.4968-2.1976 9.3292-5.4064-0.57481-0.4272-1.0725-0.94235-1.4733-1.5276-1.365 2.9712-4.395 5.0715-7.8558 5.0715-3.5531 0-6.6182-2.1626-7.9478-5.2493z" display="inline" fill="#33e9cd" fill-opacity=".99528" style="font-feature-settings:normal;font-variant-caps:normal;font-variant-ligatures:normal;font-variant-numeric:normal"/>
  <g fill="#fff" stroke="#4310a2" stroke-linejoin="bevel" stroke-width=".165">
   <path transform="translate(5.1543 12.005)" d="m-30.127-130.2h3.8834c2.5287 0 4.0414-0.24835 5.3961-0.92568 2.5739-1.2644 4.0866-4.0188 4.0866-7.3829 0-3.1609-1.3095-5.7799-3.635-7.1797-1.3095-0.79022-3.2964-1.1966-5.9154-1.1966h-3.8156zm3.0932-2.9577v-10.77h0.6096c1.9643 0 3.0254 0.18062 3.9963 0.67733 1.5804 0.8128 2.5513 2.5964 2.5513 4.7413 0 2.0094-0.92569 3.7931-2.4158 4.6059-0.92569 0.51929-2.2126 0.74507-4.064 0.74507z" display="inline" style="font-feature-settings:normal;font-variant-caps:normal;font-variant-ligatures:normal;font-variant-numeric:normal"/>
   <path transform="translate(5.1543 12.005)" d="m-3.2928-135.12c0.09031-0.42898 0.11289-0.69991 0.11289-1.1515 0-3.8834-2.7319-6.7282-6.4572-6.7282-3.6802 0-6.5927 2.9125-6.5927 6.5927 0 3.6576 2.9577 6.5024 6.7733 6.5024 2.0546 0 3.6576-0.74507 4.9671-2.2578 0.47413-0.58702 0.79022-1.1063 0.99342-1.7385h-3.2738c-0.76764 0.90311-1.5127 1.2418-2.7545 1.2418-1.7836 0-3.0932-0.94827-3.4544-2.461zm-9.7762-2.6416c0.47413-1.603 1.6933-2.4836 3.477-2.4836 1.8514 0 3.0706 0.88054 3.4544 2.4836z" display="inline" style="font-feature-settings:normal;font-variant-caps:normal;font-variant-ligatures:normal;font-variant-numeric:normal"/>
   <path transform="translate(5.1543 12.005)" d="m-0.32599-133.84c1.2869 1.7159 2.4836 2.3932 4.222 2.3932 2.7771 0 4.9671-2.19 4.9671-4.922 0-2.7771-2.1449-4.9445-4.8994-4.9445-1.8288 0-3.3415 0.88053-4.2898 2.5061h-1.874c0.99342-2.4836 3.3641-4.0414 6.1412-4.0414 3.7028 0 6.6153 2.8448 6.6153 6.4347 0 3.6802-2.9351 6.5024-6.7282 6.5024-1.5353 0-2.9577-0.49672-4.1092-1.3998-0.79022-0.63217-1.2644-1.2418-1.9417-2.5287z" display="inline" style="font-feature-settings:normal;font-variant-caps:normal;font-variant-ligatures:normal;font-variant-numeric:normal"/>
   <path transform="translate(5.1543 12.005)" d="m23.703-135.12c0.09031-0.42898 0.11289-0.69991 0.11289-1.1515 0-3.8834-2.7319-6.7282-6.4572-6.7282-3.6802 0-6.5927 2.9125-6.5927 6.5927 0 3.6576 2.9577 6.5024 6.7733 6.5024 2.0546 0 3.6576-0.74507 4.9671-2.2578 0.47413-0.58702 0.79022-1.1063 0.99342-1.7385h-3.2738c-0.76764 0.90311-1.5127 1.2418-2.7545 1.2418-1.7836 0-3.0932-0.94827-3.4544-2.461zm-9.7762-2.6416c0.47413-1.603 1.6933-2.4836 3.477-2.4836 1.8514 0 3.0706 0.88054 3.4544 2.4836z" display="inline" style="font-feature-settings:normal;font-variant-caps:normal;font-variant-ligatures:normal;font-variant-numeric:normal"/>
   <path transform="translate(5.1543 12.005)" d="m24.74-130.2h3.0028v-5.8928c0-1.6708 0.11289-2.3932 0.49671-3.0028 0.47413-0.74507 1.2644-1.1515 2.2126-1.1515 0.76765 0 1.3998 0.27094 1.8062 0.79023 0.4064 0.54186 0.58702 1.4676 0.58702 3.1383v6.1186h3.0028v-6.7056c0-2.2352-0.22578-3.3189-0.90311-4.2898-0.8128-1.174-2.1675-1.8062-3.906-1.8062-1.4224 0-2.4158 0.42898-3.5221 1.4901v-1.1966h-2.7771z" display="inline" style="font-feature-settings:normal;font-variant-caps:normal;font-variant-ligatures:normal;font-variant-numeric:normal"/>
   <path transform="translate(5.1543 12.005)" d="m37.698-130.2h3.0028v-9.7762h1.8062v-2.7319h-1.8062v-4.1769h-3.0028v4.1769h-1.4676v2.7319h1.4676z" display="inline" style="font-feature-settings:normal;font-variant-caps:normal;font-variant-ligatures:normal;font-variant-numeric:normal"/>
  </g>
  <text transform="translate(5.1543 12.005)" x="41.929211" y="-130.20088" display="inline" fill="#ffffff" fill-opacity=".99528" font-family="'URW Gothic L'" font-size="22.578px" letter-spacing="-.4789px" stroke="#4310a2" stroke-linejoin="bevel" stroke-width=".165" word-spacing="0px" style="font-feature-settings:normal;font-variant-caps:normal;font-variant-ligatures:normal;font-variant-numeric:normal;line-height:1.25" xml:space="preserve"><tspan x="41.929211" y="-130.20088" fill="#ffffff" fill-opacity=".99528" font-family="'URW Gothic L'" font-size="22.578px" stroke="#4310a2" stroke-linejoin="bevel" stroke-width=".165" style="font-feature-settings:normal;font-variant-caps:normal;font-variant-ligatures:normal;font-variant-numeric:normal"><tspan x="41.929211" y="-130.20088" dx="0 0" rotate="0 0" fill="#ffffff" fill-opacity=".99528" font-family="'URW Gothic L'" font-size="22.578px" stroke="#4310a2" stroke-linejoin="bevel" stroke-width=".165" style="font-feature-settings:normal;font-variant-caps:normal;font-variant-ligatures:normal;font-variant-numeric:normal">Labs</tspan></tspan></text>
  <g transform="matrix(1.2129 0 0 1.2129 -60.072 -92.317)" display="inline" fill="none" stroke="#4310a2" stroke-linejoin="bevel" stroke-width=".165" style="font-feature-settings:normal;font-variant-caps:normal;font-variant-ligatures:normal;font-variant-numeric:normal" aria-label="O">
   <path d="m57.074-35.138c-4.7865 0-8.8279 3.906-8.8279 8.5344 0 4.8542 3.9285 8.7376 8.8279 8.7376 4.8316 0 8.8053-3.906 8.8053-8.6247 0-4.7639-3.9737-8.6473-8.8053-8.6473zm0 1.5353c3.8834 0 7.112 3.2286 7.112 7.1346 0 3.8608-3.2286 7.0668-7.112 7.0668-3.9285 0-7.1346-3.206-7.1346-7.1572 0-3.8156 3.2738-7.0443 7.1346-7.0443z" fill="none" stroke="#4310a2" stroke-linejoin="bevel" stroke-width=".165" style="font-feature-settings:normal;font-variant-caps:normal;font-variant-ligatures:normal;font-variant-numeric:normal"/>
  </g>
 </g>
</svg>
