<svg width="58" height="57" viewBox="0 0 58 57" fill="none" xmlns="http://www.w3.org/2000/svg">
<path fill-rule="evenodd" clip-rule="evenodd" d="M28.8182 13.3702C20.7542 -1.66579 5.13804 -4.51941 1.36903 13.3702C-2.39998 31.2598 23.8274 52.1592 28.8182 55V54.8834C33.7273 52.0917 59.5255 31.5541 55.8182 13.9742C52.1108 -3.60565 36.7503 -0.801435 28.8182 13.9742V13.3702Z" fill="white"/>
<path d="M1.36903 13.3702L2.34755 13.5763L1.36903 13.3702ZM28.8182 13.3702H29.8182V13.119L29.6994 12.8976L28.8182 13.3702ZM28.8182 55L28.3235 55.8691L29.8182 56.7199V55H28.8182ZM28.8182 54.8834L28.3239 54.0141L27.8182 54.3016V54.8834H28.8182ZM55.8182 13.9742L54.8397 14.1806L55.8182 13.9742ZM28.8182 13.9742H27.8182L29.6993 14.4472L28.8182 13.9742ZM2.34755 13.5763C3.26197 9.23605 4.87206 6.26705 6.80262 4.43371C8.71546 2.61721 10.9973 1.86059 13.4169 2.02091C18.3214 2.3459 23.9919 6.48711 27.9369 13.8428L29.6994 12.8976C25.5804 5.21729 19.4109 0.413704 13.5491 0.0252879C10.5855 -0.17109 7.75261 0.773438 5.4254 2.98345C3.1159 5.17664 1.3606 8.55953 0.390512 13.164L2.34755 13.5763ZM29.3129 54.1309C26.9347 52.7772 19.2163 46.9225 12.5675 39.177C9.2501 35.3126 6.23387 31.0169 4.28003 26.6167C2.32563 22.2152 1.46281 17.7758 2.34755 13.5763L0.390512 13.164C-0.609254 17.9094 0.392968 22.791 2.45213 27.4284C4.51186 32.067 7.65771 36.5281 11.0499 40.4797C17.8202 48.3666 25.7109 54.382 28.3235 55.8691L29.3129 54.1309ZM27.8182 54.8834V55H29.8182V54.8834H27.8182ZM29.3125 55.7526C31.8842 54.2902 39.6473 48.3776 46.3078 40.6261C49.6451 36.7421 52.7406 32.3569 54.7676 27.7964C56.794 23.2372 57.7811 18.4361 56.7967 13.7679L54.8397 14.1806C55.7089 18.3023 54.8615 22.6609 52.94 26.9841C51.0191 31.306 48.0533 35.5258 44.7909 39.3227C38.2519 46.9328 30.6612 52.6849 28.3239 54.0141L29.3125 55.7526ZM56.7967 13.7679C55.8419 9.24065 54.114 5.91271 51.8391 3.75443C49.5465 1.57941 46.7557 0.649835 43.8364 0.843086C38.0632 1.22527 31.9904 5.9509 27.9371 13.5012L29.6993 14.4472C33.578 7.2219 39.1516 3.15759 43.9685 2.83872C46.3443 2.68144 48.5845 3.42357 50.4626 5.20536C52.3583 7.0039 53.9408 9.91788 54.8397 14.1806L56.7967 13.7679ZM27.8182 13.3702V13.9742H29.8182V13.3702H27.8182Z" fill="black"/>
</svg>
